<?xml version="1.0" encoding="UTF-8" standalone="no"?><!DOCTYPE svg PUBLIC "-//W3C//DTD SVG 1.1//EN" "http://www.w3.org/Graphics/SVG/1.1/DTD/svg11.dtd"><svg width="100%" height="100%" viewBox="0 0 1024 1024" version="1.1" xmlns="http://www.w3.org/2000/svg" xmlns:xlink="http://www.w3.org/1999/xlink" xml:space="preserve" xmlns:serif="http://www.serif.com/" style="fill-rule:evenodd;clip-rule:evenodd;stroke-linejoin:round;stroke-miterlimit:2;"><g><path d="M223.524,779.27l-0.037,-475.933l0.016,-143.205l-0.139,-41.206c-0.041,-8.292 -0.549,-16.903 0.408,-25.15c0.973,-8.389 5.029,-16.476 10.994,-22.446c5.558,-5.561 14.232,-9.951 22.084,-11.023c12.134,-1.656 28.569,-0.444 41.15,-0.441l85.972,0.04l274.236,0.039l0.009,92.803c-0.004,16.571 0.195,61.717 3.847,77.236c2.053,8.726 6.267,14.337 12.615,20.614c6.472,6.401 31.656,7.008 41.611,6.943c15.476,-0.101 47.603,1.526 64.457,1.512c35.2,-0.029 70.444,0.439 105.641,-0.008c4.191,-0.053 15.523,-1.033 15.596,1.957c0.52,21.306 0.043,42.73 0.03,64.045l0.022,117.602l-0.058,338.88l-0.001,0.513c-0.146,12.426 -3.384,23.715 -12.638,32.482c-6.536,6.192 -14.958,9.731 -23.856,10.61c-8.517,0.841 -17.386,0.385 -25.948,0.372l-42.623,-0.014l-141.946,-0.002l-260.753,0.009c-43.861,0.002 -87.893,0.833 -131.74,-0.043c-10.246,-0.206 -20.917,-5.459 -27.929,-12.851c-8.976,-9.462 -11.295,-20.7 -11.02,-33.335Zm464.699,-719.321c5.941,0.827 12.238,2.145 17.213,5.66c9.613,6.795 19.253,17.348 28.079,25.54l56.816,52.57l65.82,61.006c10.497,9.706 24.011,20.54 33.132,31.239l-105.27,0.176c-18.135,-0.002 -36.402,0.524 -54.52,0.04c-11.743,-0.312 -22.155,-4.513 -30.279,-13.102c-4.705,-4.974 -8.771,-11.563 -10.185,-18.315c-2.616,-12.481 -1.084,-41.063 -1.056,-54.919c0.063,-29.93 -0.572,-59.981 0.25,-89.895Z" style="fill:#c6edea;fill-rule:nonzero;"/><path d="M99.524,903.27l-0.037,-475.933l0.016,-143.205l-0.139,-41.206c-0.041,-8.292 -0.549,-16.903 0.408,-25.15c0.973,-8.389 5.029,-16.476 10.994,-22.446c5.558,-5.561 14.232,-9.951 22.084,-11.023c12.134,-1.656 28.569,-0.444 41.15,-0.441l85.972,0.04l274.236,0.039l0.009,92.803c-0.004,16.571 0.195,61.717 3.847,77.236c2.053,8.726 6.267,14.337 12.615,20.614c6.472,6.401 31.656,7.008 41.611,6.943c15.476,-0.101 47.603,1.526 64.457,1.512c35.2,-0.029 70.444,0.439 105.641,-0.008c4.191,-0.053 15.523,-1.033 15.596,1.957c0.52,21.306 0.043,42.73 0.03,64.045l0.022,117.602l-0.058,338.88l-0.001,0.513c-0.146,12.426 -3.384,23.715 -12.638,32.482c-6.536,6.192 -14.958,9.731 -23.856,10.61c-8.517,0.841 -17.386,0.385 -25.948,0.372l-42.623,-0.014l-141.946,-0.002l-260.753,0.009c-43.861,0.002 -87.893,0.833 -131.74,-0.043c-10.246,-0.206 -20.917,-5.459 -27.929,-12.851c-8.976,-9.462 -11.295,-20.7 -11.02,-33.335Zm464.699,-719.321c5.941,0.827 12.238,2.145 17.213,5.66c9.613,6.795 19.253,17.348 28.079,25.54l56.816,52.57l65.82,61.006c10.497,9.706 24.011,20.54 33.132,31.239l-105.27,0.176c-18.135,-0.002 -36.402,0.524 -54.52,0.04c-11.743,-0.312 -22.155,-4.513 -30.279,-13.102c-4.705,-4.974 -8.771,-11.563 -10.185,-18.315c-2.616,-12.481 -1.084,-41.063 -1.056,-54.919c0.063,-29.93 -0.572,-59.981 0.25,-89.895Z" style="fill:#58c1b9;fill-rule:nonzero;"/><path d="M396.305,380.525c146.166,-12.5 274.684,96.115 286.724,242.32c12.036,146.21 -96.983,274.382 -243.228,285.962c-145.593,11.524 -273.073,-96.904 -285.058,-242.461c-11.984,-145.558 96.04,-273.376 241.562,-285.821Z" style="fill:#fefefe;fill-rule:nonzero;"/><path d="M395.546,454.213c8.616,-0.435 39.033,-1.054 45.791,0.159c2.892,0.52 5.666,1.595 7.995,3.414c8.515,6.654 8.335,28.895 9.406,39.479c12.591,2.83 25.134,8.283 36.245,14.778c6.714,-5.44 21.591,-20.883 29.502,-22.023c4.351,-0.629 8.917,-0.035 12.458,2.756c6.19,4.879 30.127,28.6 34.339,34.628c1.157,1.655 1.65,3.597 1.824,5.587c0.233,2.659 -0.072,5.531 -1.203,7.972c-3.569,7.695 -15.525,19.508 -21.41,26.615c7.143,12.109 12.206,24.531 15.797,38.107c9.154,1.073 28.872,0.966 36.093,5.84c4.16,2.807 6.034,7.622 6.723,12.418c0.955,6.635 1.009,35.794 -0.012,42.191c-0.523,3.281 -1.594,6.549 -3.682,9.179c-6.259,7.878 -29.371,7.553 -39.383,8.428c-3.73,13.227 -8.857,25.262 -15.541,37.233c6.164,7.634 21.244,21.495 22.732,30.936c0.594,3.765 -0.766,8.036 -3.058,11.022c-4.576,5.961 -10.938,11.253 -16.244,16.598c-5.519,5.56 -11.07,12.424 -17.331,17.105c-2.003,1.498 -4.859,2.479 -7.327,2.738c-2.306,0.241 -5.092,0.069 -7.251,-0.827c-7.204,-2.992 -20.803,-16.134 -27.264,-21.483c-11.411,6.389 -23.344,11.686 -36.155,14.479c-0.832,9.215 -1.192,26.724 -4.947,34.69c-2.449,5.194 -5.817,7.259 -11.031,9.238c-8.096,0.555 -38.87,1.018 -45.527,-0.194c-2.921,-0.531 -5.76,-1.654 -8.094,-3.515c-7.918,-6.319 -8.035,-30.017 -9.21,-40.005c-12.634,-3.382 -24.784,-8.367 -36.153,-14.835c-7.734,6.69 -22.256,21.661 -31.954,22.994c-3.764,0.518 -8.443,-2.43 -11.283,-4.591c-5.556,-4.231 -28.94,-27.682 -32.735,-33.068c-1.435,-2.037 -2.234,-4.296 -2.437,-6.778c-0.2,-2.443 0.104,-5.436 1.04,-7.715c2.981,-7.255 15.876,-20.204 21.343,-26.577c-6.236,-12.153 -11.866,-23.926 -15.486,-37.173c-9.134,-0.985 -29.623,-0.975 -36.669,-5.968c-3.518,-2.492 -5.271,-7.753 -5.887,-11.815c-1.167,-7.706 -1.184,-36.743 0.255,-44.227c0.564,-2.936 1.727,-6.087 3.586,-8.461c5.31,-6.775 29.893,-6.992 38.749,-7.882c3.341,-13.232 8.568,-25.916 15.518,-37.663c-5.809,-7.57 -21.004,-21.381 -22.118,-30.362c-0.623,-5.014 1.046,-9.504 4.245,-13.321c5.217,-6.224 27.276,-28.827 33.504,-32.745c1.943,-1.221 4.57,-1.822 6.836,-1.966c9.652,-0.617 25.483,16.151 32.974,22.418c10.968,-6.639 24.075,-11.842 36.583,-14.598c1.667,-10.253 0.693,-25.122 5.057,-34.402c2.366,-5.032 5.664,-7.086 10.797,-8.808Z" style="fill:#5b8ba9;fill-rule:nonzero;"/><path d="M410.072,568.611c42.058,-4.879 80.08,25.336 84.827,67.409c4.746,42.075 -25.588,80.001 -67.677,84.616c-41.902,4.593 -79.623,-25.577 -84.349,-67.465c-4.725,-41.887 25.325,-79.702 67.199,-84.56Z" style="fill:#fefefe;fill-rule:nonzero;"/></g></svg>