<?xml version="1.0" encoding="UTF-8" standalone="no"?><!DOCTYPE svg PUBLIC "-//W3C//DTD SVG 1.1//EN" "http://www.w3.org/Graphics/SVG/1.1/DTD/svg11.dtd"><svg width="100%" height="100%" viewBox="0 0 1708 1708" version="1.1" xmlns="http://www.w3.org/2000/svg" xmlns:xlink="http://www.w3.org/1999/xlink" xml:space="preserve" xmlns:serif="http://www.serif.com/" style="fill-rule:evenodd;clip-rule:evenodd;stroke-linejoin:round;stroke-miterlimit:2;"><g><path d="M1589.66,1370.96c-195.85,177.667 -613.365,188.258 -967.523,141.564c-140.512,-18.526 -302.116,-62.703 -415.267,-151.913c-12.255,-9.405 -23.941,-19.666 -34.486,-30.781c-9.976,-10.546 -19.381,-22.232 -29.927,-32.207c-8.265,-7.696 -18.526,-13.396 -27.931,-19.666c-15.961,-10.261 -27.932,-23.086 -39.333,-38.192c-55.007,-72.394 -69.828,-175.854 -57.573,-264.494c9.691,-67.834 35.627,-127.687 91.205,-169.869c21.376,-49.878 43.893,-96.05 78.094,-138.802c109.731,-137.378 285.015,-221.457 452.319,-263.924c60.993,-15.676 123.127,-25.652 185.83,-32.492c0.57,-4.56 0.855,-9.691 2.28,-13.966c2.565,-7.41 10.261,-9.69 16.816,-12.255c-2.85,-55.008 -17.386,-118.852 -31.922,-172.149c-15.391,-2.566 -27.361,-7.696 -41.327,-13.966l-1.425,-0l1.71,-0c-7.98,-8.266 -14.821,-16.246 -18.241,-27.362c-1.33,-3.61 -2.185,-7.22 -2.565,-10.83c-0.38,-3.61 -0.38,-7.316 0,-11.116c0.19,-3.61 0.855,-7.22 1.995,-10.83c1.14,-3.611 2.565,-7.031 4.275,-10.261c1.9,-3.23 4.086,-6.27 6.556,-9.12c2.28,-2.851 4.94,-5.511 7.98,-7.981c3.04,-2.28 6.175,-4.275 9.406,-5.985c3.42,-1.71 6.935,-3.135 10.545,-4.275c17.671,-5.131 34.487,-2.85 50.448,5.7c14.536,11.401 26.791,23.656 28.786,43.037c0.285,2.565 0,4.845 0,7.411c-1.71,18.241 -7.695,29.356 -21.946,41.042c-4.275,3.42 -9.12,6.555 -13.11,9.975l-0.285,0c20.521,57.003 36.196,112.866 48.737,171.864c9.406,1.14 18.241,2.28 24.511,10.261c3.421,4.275 4.846,10.26 6.556,15.391c46.457,-0.57 93.2,-1.425 139.372,3.135c153.053,14.821 291.109,70.053 407.667,171.674c41.878,36.512 101.763,107.457 137.247,178.108c54.512,108.54 93.239,250.72 92.997,379.235c-0.221,116.691 -55.029,231.002 -102.471,274.039Z" style="fill:#939ea7;"/><path d="M728.736,411.514c-1.71,-0.285 -3.135,-0.855 -4.845,-1.71c1.995,-1.71 1.425,-1.425 3.705,-2.28c17.101,-5.13 37.052,-7.125 54.723,-9.976c24.891,-3.8 49.782,-6.65 74.674,-8.55c25.081,-2.09 50.162,-3.325 75.244,-3.705c25.081,-0.38 50.162,0.19 75.244,1.71c24.891,1.33 49.782,3.61 74.674,6.84c21.376,2.85 43.037,4.56 62.703,13.966l5.7,-0c24.226,0.57 49.308,10.831 71.824,18.811c96.62,34.772 183.55,86.075 255.088,160.463c124.552,129.967 196.661,332.898 192.671,511.887c-2.281,95.48 -29.072,188.965 -99.756,256.514c-102.605,98.33 -263.354,133.672 -400.446,146.783c-39.332,3.705 -78.379,6.555 -117.996,5.415c-19.381,2.85 -41.042,1.995 -60.708,2.28c-42.468,0.57 -85.79,-1.71 -128.257,-3.135c-198.655,-6.84 -437.213,-28.217 -608.507,-137.947c-29.927,-19.381 -55.578,-43.323 -80.944,-68.119c5.7,1.33 11.4,2.565 17.101,3.705c5.7,1.14 11.495,2.185 17.385,3.135c5.701,0.95 11.496,1.71 17.386,2.281c5.701,0.57 11.496,1.045 17.386,1.425c45.318,2.85 79.234,-10.831 113.151,-40.473c45.033,84.365 118.852,156.189 207.491,193.811c4.845,1.995 28.502,12.825 32.777,11.115c-15.676,-11.115 -49.878,-22.801 -68.974,-33.917c-55.863,-32.206 -106.88,-80.944 -143.932,-133.672c-8.836,-13.11 -16.816,-27.076 -25.082,-40.757c40.758,-47.312 62.419,-106.595 69.829,-168.444c9.121,-77.809 -1.425,-167.303 -39.332,-236.562c-13.111,-23.941 -30.497,-45.317 -47.313,-66.694c10.831,-30.496 21.377,-61.563 37.337,-90.064c49.023,-105.456 137.378,-184.975 234.568,-245.113c20.806,-13.111 70.114,-44.748 92.915,-46.173c6.84,-0.285 15.106,2.28 21.661,3.991l0.855,-6.841Z" style="fill:#fefefe;fill-rule:nonzero;"/><path d="M378.737,705.65c0,0.38 0.095,0.76 0.285,1.14c7.696,22.801 9.691,48.167 16.531,71.539c20.236,67.833 47.883,132.531 57.573,203.5c7.411,54.438 -1.14,108.306 3.136,162.744c2.28,31.921 11.685,59.853 25.936,88.354c40.472,81.515 112.296,141.653 192.67,181.84c84.65,42.182 176.994,64.698 270.194,78.664c33.062,4.845 68.119,5.7 100.611,13.396c1.995,0.285 4.275,0.57 6.27,0.855c-19.381,2.85 -41.042,1.995 -60.708,2.28c-42.468,0.57 -85.79,-1.71 -128.257,-3.135c-198.655,-6.84 -437.213,-28.217 -608.507,-137.947c-29.927,-19.381 -55.578,-43.323 -80.944,-68.119c5.7,1.33 11.4,2.565 17.101,3.705c5.7,1.14 11.495,2.185 17.385,3.135c5.701,0.95 11.496,1.71 17.386,2.281c5.701,0.57 11.496,1.045 17.386,1.425c45.318,2.85 79.234,-10.831 113.151,-40.473c45.318,84.365 119.137,156.189 207.491,193.811c4.845,1.995 28.502,12.825 32.777,11.115c-15.676,-11.115 -49.593,-22.801 -68.974,-33.917c-55.863,-32.206 -106.88,-80.944 -143.932,-133.672c-8.836,-13.11 -16.816,-27.076 -25.082,-40.757c40.758,-47.312 62.419,-106.595 69.829,-168.444c9.121,-77.809 -1.425,-167.303 -39.332,-236.562c-13.111,-23.941 -30.497,-45.317 -47.313,-66.694c10.831,-30.496 21.377,-61.563 37.337,-90.064Z" style="fill:#cbdae0;fill-rule:nonzero;"/><path d="M728.736,411.514c-1.71,-0.285 -3.135,-0.855 -4.845,-1.71c1.995,-1.71 1.425,-1.425 3.705,-2.28c17.101,-5.13 37.052,-7.125 54.723,-9.976c24.891,-3.8 49.782,-6.65 74.674,-8.55c25.081,-2.09 50.162,-3.325 75.244,-3.705c25.081,-0.38 50.162,0.19 75.244,1.71c24.891,1.33 49.782,3.61 74.674,6.84c21.376,2.85 43.037,4.56 62.703,13.966c44.747,38.192 86.929,74.104 110.586,129.967c4.275,9.69 9.405,21.661 9.975,32.207c0.285,4.275 -0.285,6.84 -2.565,10.545c-3.99,2.565 -7.41,3.135 -11.971,3.42c-11.685,0.57 -23.371,-1.425 -35.056,-2.565c-13.966,-0.855 -28.217,-1.14 -42.468,-1.71c-11.02,-0.38 -21.946,-0.665 -32.776,-0.855c-11.021,-0.19 -22.042,-0.19 -33.062,-0c-11.021,0.19 -22.041,0.475 -33.062,0.855c-10.83,0.38 -21.756,0.855 -32.777,1.425c-23.941,1.425 -47.597,3.705 -71.253,4.275c-15.961,-19.381 -31.067,-39.617 -48.168,-57.858c-51.588,-55.293 -119.706,-97.76 -193.525,-116.001Z" style="fill:#95bf37;fill-rule:nonzero;"/><path d="M964.158,450.846c2.565,0.57 5.131,1.14 7.696,1.995c26.221,9.976 51.017,50.163 60.708,74.959c4.275,11.116 9.12,25.082 3.99,36.482c-5.985,-4.275 -10.83,-9.405 -15.106,-15.106c-13.965,-17.956 -23.371,-38.762 -37.337,-56.433c-5.415,-6.84 -21.661,-23.086 -23.656,-29.926c-1.14,-4.275 1.71,-8.551 3.705,-11.971Z" style="fill:#b2db58;fill-rule:nonzero;"/><path d="M1055.93,450.846c1.995,0.855 3.705,1.425 5.7,2.565c22.517,11.971 40.188,46.743 47.598,70.114c3.99,12.826 6.27,23.941 -0.285,36.197c-1.425,-0.285 -1.425,-0.285 -3.42,-1.14c-3.99,-1.425 -6.556,-4.845 -8.836,-8.266c-6.84,-11.4 -11.685,-25.651 -17.671,-37.906c-6.27,-13.396 -13.965,-26.222 -20.806,-39.333c-1.995,-3.42 -5.13,-7.98 -5.985,-11.97c-1.14,-4.275 1.425,-6.841 3.705,-10.261Z" style="fill:#b2db58;fill-rule:nonzero;"/><path d="M1125.19,447.141c2.09,0.57 4.085,1.235 5.985,1.995c17.671,6.841 31.352,33.062 38.762,49.308c7.981,17.671 16.246,38.477 9.406,57.288c-3.706,-1.425 -5.986,-2.85 -8.266,-6.271c-9.975,-13.395 -15.106,-31.921 -22.801,-46.742c-6.84,-13.681 -15.391,-26.221 -21.661,-39.902c-2.565,-6.27 -3.705,-9.121 -1.425,-15.676Z" style="fill:#b2db58;fill-rule:nonzero;"/><path d="M1093.56,626.701l1.71,-0c0.57,-0.19 1.14,-0.285 1.71,-0.285l3.135,-0c125.692,-2.281 256.799,7.41 374.225,55.292c26.222,10.831 54.153,23.087 74.674,43.323c16.816,16.531 28.787,37.622 39.617,58.428c44.748,86.644 62.989,186.685 63.274,283.875c-0,82.084 -19.666,161.318 -79.235,220.886c-33.346,32.777 -73.248,56.433 -114.576,77.239c-132.532,65.839 -246.823,79.52 -393.605,79.805c-144.503,1.425 -320.072,-28.217 -431.228,-127.402c-82.369,-73.534 -120.846,-185.545 -127.117,-293.566c-4.845,-87.784 14.821,-180.414 74.959,-247.108c114.291,-126.261 354.274,-142.507 512.457,-150.487Z" style="fill:#1c97cf;fill-rule:nonzero;"/><path d="M1553.28,1249.17c-7.98,2.85 -15.96,5.701 -24.511,7.126c-17.671,2.85 -37.907,-0 -52.443,-11.116c-7.41,-5.985 -12.825,-13.966 -13.68,-23.656c-0.855,-9.976 3.135,-19.381 9.405,-26.792c15.391,-17.67 47.883,-27.931 70.969,-28.501c11.4,-0.57 20.806,2.85 29.071,11.116c9.691,9.69 8.551,24.511 8.551,37.337c-7.411,11.97 -15.961,25.651 -27.362,34.486Z" style="fill:#939ea7;fill-rule:nonzero;"/><path d="M879.794,720.755c45.602,-3.135 93.2,13.966 129.967,40.758c56.718,41.897 92.06,106.31 102.32,175.284c2.565,15.106 3.42,30.211 2.85,45.317c-0.57,15.106 -2.85,30.212 -6.27,45.033c-3.705,14.535 -8.836,28.786 -15.391,42.752c-6.27,13.681 -14.251,26.506 -23.371,38.762c-42.752,57.288 -105.456,87.785 -175.284,98.045c-59.854,3.705 -114.861,-15.106 -160.179,-54.438c-11.4,-9.69 -21.661,-20.521 -30.781,-32.206c-9.406,-11.971 -17.386,-24.512 -23.942,-37.907c-6.84,-13.111 -12.255,-27.077 -16.246,-41.613c-3.99,-14.25 -6.84,-29.071 -7.98,-43.892c-4.845,-70.684 17.671,-143.933 64.983,-197.515c9.691,-11.401 20.807,-21.947 33.062,-31.352c11.971,-9.121 24.797,-17.101 38.477,-23.941c13.681,-6.841 27.932,-11.971 42.752,-15.961c14.536,-3.705 29.642,-6.27 45.033,-7.126Z" style="fill:#939ea7;fill-rule:nonzero;"/><path d="M680.283,928.531c1.71,-21.946 11.116,-43.037 20.521,-62.703c25.937,-53.298 69.544,-95.195 125.977,-114.576c11.591,-3.8 23.371,-6.555 35.342,-8.265c12.161,-1.52 24.321,-1.805 36.482,-0.855c12.16,0.76 24.131,2.755 35.912,5.985c11.78,3.04 23.086,7.315 33.917,12.826c52.442,25.651 93.769,74.674 112.295,129.966c22.232,57.288 22.232,117.712 -2.28,174.145c-23.086,53.297 -66.978,92.344 -120.846,113.151c-12.541,4.56 -25.651,8.265 -38.762,10.545c-13.396,1.995 -26.791,3.135 -40.187,2.565c-13.396,-0.285 -26.792,-2.28 -39.902,-5.13c-13.111,-3.135 -25.937,-7.695 -37.907,-13.111c-13.111,-5.985 -25.082,-13.11 -36.482,-21.661c-11.401,-8.265 -22.231,-17.671 -31.637,-28.216c-9.69,-10.546 -18.241,-21.661 -25.366,-33.917c-7.411,-11.971 -13.396,-24.796 -18.241,-38.192c-15.106,-40.757 -16.531,-80.089 -8.836,-122.557Z" style="fill:#fefefe;fill-rule:nonzero;"/><path d="M680.283,928.531c1.71,-21.946 11.116,-43.037 20.521,-62.703c25.937,-53.298 69.544,-95.195 125.977,-114.576c11.591,-3.8 23.371,-6.555 35.342,-8.265c12.161,-1.52 24.321,-1.805 36.482,-0.855c12.16,0.76 24.131,2.755 35.912,5.985c11.78,3.04 23.086,7.315 33.917,12.826c52.442,25.651 93.769,74.674 112.295,129.966c-0.76,-0.57 -1.425,-1.14 -1.995,-1.71c-12.54,-9.12 -22.801,-27.931 -34.771,-39.332c-47.883,-45.602 -112.296,-65.838 -177.565,-58.713c-62.988,6.841 -121.986,45.318 -160.748,94.34c-10.831,13.396 -15.391,29.642 -25.367,43.037Z" style="fill:#cbdae0;fill-rule:nonzero;"/><path d="M936.797,837.327c23.371,-2.28 47.597,5.985 66.693,18.526c34.487,22.231 56.718,59.568 64.984,99.47c9.405,45.887 1.14,95.195 -24.797,134.812c-21.091,32.207 -52.442,51.018 -89.779,58.713c-29.072,1.425 -54.723,-1.71 -78.949,-19.096c-31.352,-22.231 -49.878,-59.853 -56.148,-97.19c-7.981,-49.023 3.99,-102.035 33.346,-142.508c21.092,-28.786 49.308,-47.027 84.65,-52.727Z" style="fill:#132a3f;fill-rule:nonzero;"/><path d="M879.224,887.774c6.84,-0.57 13.396,-0.855 19.951,0.855c14.251,4.276 25.081,13.681 31.922,26.792c8.835,17.101 10.26,37.622 4.275,55.863c-6.556,19.951 -19.381,31.636 -37.907,40.757c-7.696,1.425 -16.531,0.57 -23.941,-1.995c-13.396,-4.561 -23.087,-14.536 -29.072,-27.077c-8.835,-18.241 -8.835,-40.472 -1.14,-59.283c7.125,-17.956 18.811,-28.216 35.912,-35.912Z" style="fill:#fefefe;fill-rule:nonzero;"/><path d="M1382.85,719.33c0.57,-0.19 1.14,-0.285 1.71,-0.285c33.917,-3.99 67.834,11.401 94.34,31.352c57.288,43.322 91.775,118.566 101.466,188.395c8.835,62.988 -1.71,129.682 -41.042,181.27c-24.227,31.636 -58.143,52.442 -97.761,57.858c-36.481,4.56 -70.968,-3.421 -100.895,-24.797c-52.443,-36.767 -82.654,-96.905 -93.2,-159.038c-12.255,-71.824 -4.275,-156.188 39.332,-216.612c24.227,-33.916 55.293,-51.587 96.05,-58.143Z" style="fill:#939ea7;fill-rule:nonzero;"/><path d="M1279.1,827.351c12.826,-32.207 33.917,-62.988 66.408,-77.524c7.031,-3.04 14.346,-5.415 21.947,-7.125c7.6,-1.71 15.2,-2.661 22.801,-2.851c7.79,-0.19 15.486,0.476 23.086,1.996c7.6,1.33 15.011,3.42 22.231,6.27c52.158,20.521 87.785,73.819 108.591,123.411c27.076,64.129 29.926,140.228 3.42,204.641c-1.33,3.04 -2.66,5.891 -3.99,8.551c-1.33,2.85 -2.755,5.7 -4.275,8.55c-1.52,2.66 -3.136,5.32 -4.846,7.981c-1.52,2.66 -3.23,5.225 -5.13,7.695c-15.961,20.521 -34.487,38.477 -58.143,49.878c-6.65,3.04 -13.491,5.51 -20.521,7.41c-7.03,1.71 -14.251,2.755 -21.661,3.135c-7.221,0.19 -14.441,-0.19 -21.661,-1.14c-7.221,-1.14 -14.251,-2.945 -21.091,-5.415c-45.888,-16.531 -82.37,-59.853 -102.606,-103.176c-34.487,-73.249 -31.352,-157.328 -4.56,-232.287Z" style="fill:#fefefe;fill-rule:nonzero;"/><path d="M1279.1,827.351c12.826,-32.207 33.917,-62.988 66.408,-77.524c7.031,-3.04 14.346,-5.415 21.947,-7.125c7.6,-1.71 15.2,-2.661 22.801,-2.851c7.79,-0.19 15.486,0.476 23.086,1.996c7.6,1.33 15.011,3.42 22.231,6.27c52.158,20.521 87.785,73.819 108.591,123.411c27.076,64.129 29.926,140.228 3.42,204.641c-1.33,3.04 -2.66,5.891 -3.99,8.551c-1.33,2.85 -2.755,5.7 -4.275,8.55c-1.52,2.66 -3.136,5.32 -4.846,7.981c-1.52,2.66 -3.23,5.225 -5.13,7.695c-3.42,-15.106 8.836,-36.482 12.541,-51.873c12.825,-51.873 -0.285,-112.011 -20.806,-160.463c-17.956,-42.467 -48.453,-86.93 -92.915,-104.601c-35.627,-13.966 -77.809,-9.405 -110.016,11.116c-12.256,7.695 -24.511,18.241 -37.622,23.941c-0.57,0.19 -1.045,0.285 -1.425,0.285Z" style="fill:#cbdae0;fill-rule:nonzero;"/><path d="M1348.07,833.051c13.395,-0.855 27.076,0.57 39.617,5.701c29.926,11.685 52.157,40.472 64.698,68.973c21.091,48.453 22.801,109.446 3.42,158.469c-11.685,28.786 -28.786,47.882 -57.573,60.138c-17.956,1.14 -34.202,-1.14 -50.162,-10.546c-35.627,-21.376 -55.578,-64.128 -65.269,-103.175c-11.401,-45.888 -10.26,-100.61 15.106,-141.938c11.686,-19.381 27.931,-32.206 50.163,-37.622Z" style="fill:#132a3f;fill-rule:nonzero;"/><path d="M1328.69,877.799c4.56,-0.57 9.405,-0.57 13.965,0.57c10.831,2.85 19.951,10.545 25.652,20.236c10.26,17.101 12.54,41.327 7.125,60.138c-4.275,15.676 -12.256,24.796 -25.936,32.492c-3.421,0.285 -6.841,0.57 -10.261,0.285c-2.28,-0.38 -4.56,-0.95 -6.84,-1.71c-2.28,-0.76 -4.466,-1.805 -6.556,-3.136c-2.09,-1.14 -3.99,-2.565 -5.7,-4.275c-1.9,-1.52 -3.515,-3.23 -4.845,-5.13c-11.116,-14.821 -14.821,-37.052 -12.256,-55.293c2.565,-18.811 10.546,-32.777 25.652,-44.177Z" style="fill:#fefefe;fill-rule:nonzero;"/><path d="M1160.25,1314.16c-27.932,-7.411 -49.023,-27.362 -63.274,-51.873c-14.82,-25.081 -21.661,-53.013 -13.395,-81.799c1.14,-4.561 2.85,-11.401 7.125,-14.251c1.71,-1.14 3.135,-0.285 4.845,-0c2.565,3.705 2.28,7.98 2.565,12.256c3.136,3.99 9.121,5.13 13.681,7.125c23.656,11.401 46.458,21.661 72.964,24.796c29.071,3.42 58.713,-4.845 83.224,-20.521c7.981,-4.845 15.961,-11.97 24.797,-15.391c4.275,-1.425 6.555,-1.14 10.545,0.57c4.56,5.701 4.275,12.826 3.42,19.951c-4.845,39.903 -25.651,85.505 -58.143,110.301c-14.535,11.116 -33.631,18.526 -52.157,15.676c-0.57,0 -1.046,-0.095 -1.426,-0.285c-3.04,-0.19 -5.985,-0.475 -8.835,-0.855c-3.04,-0.38 -5.985,-0.855 -8.835,-1.425c-2.851,-0.57 -5.701,-1.235 -8.551,-1.995c-3.04,-0.76 -5.89,-1.52 -8.55,-2.28Z" style="fill:#132a3f;fill-rule:nonzero;"/><path d="M1116.93,1281.1c31.352,-13.681 65.554,-19.951 98.331,-7.695c9.405,3.705 26.506,12.54 31.351,21.946c1.71,3.135 1.425,4.275 0.285,7.41c-13.11,13.681 -34.487,14.536 -51.873,17.956c-3.04,-0.19 -5.985,-0.475 -8.835,-0.855c-3.04,-0.38 -5.985,-0.855 -8.835,-1.425c-2.851,-0.57 -5.701,-1.235 -8.551,-1.995c-2.85,-0.76 -5.7,-1.52 -8.55,-2.28c-14.821,-10.831 -29.357,-21.661 -43.323,-33.062Z" style="fill:#939ea7;fill-rule:nonzero;"/><path d="M749.827,1208.42c26.221,-1.425 53.298,0.57 78.094,9.691c14.821,5.415 30.497,14.82 36.767,30.211c3.42,7.981 3.42,16.246 0,24.227c-8.55,20.521 -33.347,33.061 -53.013,41.042c-3.8,1.14 -7.695,2.28 -11.685,3.42c-25.367,6.27 -58.143,7.41 -80.945,-7.125c-10.545,-6.841 -17.956,-16.816 -20.521,-29.357c-3.705,-16.246 1.14,-35.627 10.831,-49.023c9.975,-14.535 23.656,-20.236 40.472,-23.086Z" style="fill:#939ea7;fill-rule:nonzero;"/><path d="M736.431,561.717c10.261,-0.285 21.091,1.425 30.212,5.7c15.676,7.411 22.801,20.521 28.501,35.912c-27.361,0.285 -49.307,3.135 -74.389,13.966c-9.69,5.415 -21.091,18.241 -32.206,19.381c-3.135,-2.28 -3.99,-4.275 -5.13,-8.265c-2.851,-9.976 -0,-20.236 4.845,-28.787c10.26,-19.951 27.646,-31.352 48.167,-37.907Z" style="fill:#939ea7;fill-rule:nonzero;"/><path d="M1458.94,620.715c0.855,3.99 1.14,7.411 1.425,11.401c-1.425,3.135 -1.14,3.135 -4.275,4.56c-13.11,-1.71 -38.477,-23.941 -53.868,-30.782c-8.835,-3.705 -26.791,-7.695 -33.346,-14.25c-1.14,-1.425 -1.14,-3.135 -0.855,-4.846c1.425,-6.84 9.12,-15.675 14.82,-19.666c6.841,-4.845 17.101,-5.7 25.082,-3.99c14.82,2.85 28.216,13.966 36.767,26.507c6.84,9.975 11.115,19.381 14.25,31.066Z" style="fill:#939ea7;fill-rule:nonzero;"/><path d="M177.802,795.429c40.472,-12.825 83.794,-25.936 124.266,-5.13c47.883,24.796 77.81,88.64 92.915,137.662c19.951,64.984 21.091,133.387 8.836,200.081c-13.301,-11.781 -26.697,-23.466 -40.187,-35.057c-17.101,17.101 -36.197,39.332 -59.283,47.598c-13.396,47.312 -32.207,94.34 -71.254,126.546l-4.845,-1.995l-3.421,2.28c-0.76,0.38 -1.425,0.76 -1.995,1.14c-0.57,0.38 -1.14,0.665 -1.71,0.855c-19.381,10.831 -41.042,13.966 -62.418,7.696c-39.332,-12.256 -68.404,-48.453 -86.645,-83.51c-40.757,-78.094 -49.307,-181.269 -22.801,-265.064c14.821,-47.027 45.888,-94.055 90.92,-116.856c18.241,-9.405 34.202,-10.545 53.868,-4.275l0.285,-5.415c-5.701,-1.995 -11.116,-4.275 -16.531,-6.556Z" style="fill:#799c2b;fill-rule:nonzero;"/><path d="M177.802,795.429c40.472,-12.825 83.794,-25.936 124.266,-5.13c47.883,24.796 77.81,88.64 92.915,137.662c19.951,64.984 21.091,133.387 8.836,200.081c-13.301,-11.781 -26.697,-23.466 -40.187,-35.057c-17.101,17.101 -36.197,39.332 -59.283,47.598c15.675,-78.38 10.545,-163.314 -20.237,-237.703c-17.955,-43.607 -45.032,-82.369 -89.779,-100.895c-5.416,-1.995 -11.116,-4.275 -16.531,-6.556Z" style="fill:#95bf37;fill-rule:nonzero;"/><path d="M194.333,801.985c44.747,18.526 71.824,57.288 89.779,100.895c30.782,74.389 35.912,159.323 20.237,237.703c-13.396,47.312 -32.207,94.34 -71.254,126.546l-4.845,-1.995c4.94,-4.18 9.69,-8.55 14.25,-13.111c4.561,-4.56 8.836,-9.31 12.826,-14.25c3.99,-4.941 7.79,-10.166 11.401,-15.676c3.42,-5.32 6.555,-10.831 9.405,-16.531c39.332,-77.524 39.617,-195.805 12.541,-277.605c-17.671,-53.867 -43.323,-94.055 -94.625,-120.561l0.285,-5.415Z" style="fill:#939ea7;fill-rule:nonzero;"/><path d="M139.61,855.568c15.391,-0.57 27.361,3.135 39.902,12.255c39.902,28.502 61.563,98.33 68.119,144.503c9.12,60.993 4.56,145.928 -33.917,196.66c-13.111,17.386 -28.787,27.932 -50.733,31.067c-13.681,0.57 -27.076,-3.99 -38.477,-11.686c-37.052,-24.796 -56.148,-77.239 -64.698,-118.851c-13.966,-66.979 -13.396,-156.188 26.221,-214.901c13.396,-19.951 29.642,-34.487 53.583,-39.047Z" style="fill:#939ea7;fill-rule:nonzero;"/><path d="M185.782,897.18c12.541,10.26 17.956,27.931 23.657,42.752c28.216,74.674 33.631,170.154 0.285,243.973c-10.831,1.425 -18.526,1.14 -29.072,-1.71c-10.831,-7.411 -19.096,-18.811 -25.366,-30.212c-29.357,-54.153 -33.917,-132.247 -16.531,-190.39c8.265,-28.501 20.521,-50.162 47.027,-64.413Z" style="fill:#0778ac;fill-rule:nonzero;"/><path d="M153.576,868.108c12.54,4.275 21.376,10.261 30.211,19.666c-33.062,19.381 -48.167,41.897 -57.858,79.234c-15.106,58.714 -12.826,135.098 18.526,188.395c7.981,13.396 22.516,31.637 38.192,35.912c7.696,1.995 17.101,1.425 25.081,1.425c-6.555,11.116 -13.395,25.082 -26.791,29.072c-1.995,0.855 -3.99,1.14 -5.985,1.425c-1.14,-0 -2.375,0.095 -3.705,0.285l-3.421,-0c-1.14,-0 -2.375,0.095 -3.705,0.285c-1.14,-0 -2.28,-0.095 -3.42,-0.285c-18.811,-0.285 -36.197,-10.831 -48.738,-23.941c-41.327,-43.323 -52.727,-118.282 -51.017,-175.57c1.14,-45.887 11.97,-107.45 47.597,-139.942c13.681,-12.541 27.077,-16.531 45.033,-15.961Z" style="fill:#38394f;fill-rule:nonzero;"/><path d="M140.18,791.439c47.312,-113.436 142.222,-205.211 249.388,-263.354c-11.116,46.173 -17.671,81.23 -12.826,129.112c0.855,9.121 1.14,19.951 5.416,28.217c-17.671,35.341 -32.777,69.258 -44.748,107.165c-14.821,-11.115 -29.926,-21.661 -47.312,-27.646c-50.448,-17.101 -105.171,3.99 -149.918,26.506Z" style="fill:#cbdae0;fill-rule:nonzero;"/><path d="M389.568,528.085c51.873,-37.337 168.159,-76.099 230.577,-94.625c19.951,-5.7 40.187,-13.11 60.993,-14.535c0.76,-0.19 1.425,-0.285 1.995,-0.285l1.141,-0c-14.821,6.555 -29.927,12.54 -44.178,19.951c-20.521,11.02 -40.377,23.086 -59.568,36.197c-19.001,12.92 -37.337,26.886 -55.008,41.897c-17.671,14.821 -34.582,30.686 -50.732,47.597c-15.961,16.721 -31.067,34.202 -45.318,52.443c-17.101,22.231 -31.067,46.172 -47.312,68.689c-4.276,-8.266 -4.561,-19.096 -5.416,-28.217c-4.845,-47.882 1.71,-82.939 12.826,-129.112Z" style="fill:#fefefe;fill-rule:nonzero;"/><path d="M363.632,1092.99c13.49,11.591 26.886,23.276 40.187,35.057c-13.681,54.438 -36.197,117.711 -86.93,148.493c-37.622,22.516 -80.944,15.106 -122.271,11.115c13.395,-5.7 27.361,-10.83 38.477,-20.521c39.047,-32.206 57.858,-79.234 71.254,-126.546c23.086,-8.266 42.182,-30.497 59.283,-47.598Z" style="fill:#799c2b;fill-rule:nonzero;"/><path d="M766.643,86.027c1.33,-1.71 2.755,-3.23 4.275,-4.56c15.676,-14.536 30.212,-16.816 50.733,-15.961c15.961,7.98 31.921,14.821 38.477,33.062c1.71,5.415 2.85,11.4 3.135,16.816c-1.425,6.27 -2.28,12.54 -4.845,18.241c-7.696,12.54 -17.956,22.516 -32.207,26.791c-14.251,4.275 -29.927,1.71 -43.037,-5.13c-11.686,-6.271 -21.091,-16.816 -24.512,-30.212c-3.42,-13.681 0.571,-27.361 7.981,-39.047Z" style="fill:#799c2b;fill-rule:nonzero;"/><path d="M766.643,86.027c4.56,6.555 5.415,13.111 6.27,21.091c14.536,17.101 30.782,25.081 53.013,26.792c10.261,0.855 21.946,0.57 32.492,-0.285c-7.696,12.54 -17.956,22.516 -32.207,26.791c-14.251,4.275 -29.927,1.71 -43.037,-5.13c-11.686,-6.271 -21.091,-16.816 -24.512,-30.212c-3.42,-13.681 0.571,-27.361 7.981,-39.047Z" style="fill:#607f1d;fill-rule:nonzero;"/><path d="M817.091,74.626c3.705,-1.425 7.695,-1.425 11.115,0c3.42,1.426 6.27,4.276 7.696,7.981c1.425,3.42 1.14,7.41 -0.285,10.83c-1.426,3.421 -4.276,6.271 -7.981,7.696c-3.42,1.14 -7.41,1.14 -10.83,-0.285c-3.421,-1.71 -5.986,-4.275 -7.411,-7.981c-1.425,-3.42 -1.425,-7.125 0,-10.545c1.71,-3.705 4.275,-6.27 7.696,-7.696Z" style="fill:#b2db58;fill-rule:nonzero;"/><path d="M820.511,168.966l4.845,0.855c14.251,17.386 49.878,148.493 48.738,169.014c-6.556,0.57 -13.396,1.71 -19.951,2.565c-7.981,-37.907 -10.546,-77.239 -17.956,-115.431c-3.706,-19.381 -12.541,-37.622 -15.676,-57.003Z" style="fill:#38394f;fill-rule:nonzero;"/><path d="M865.258,346.816c6.84,-0.855 14.821,-0.855 21.661,0.57c5.701,1.425 14.251,4.56 17.386,9.975c1.14,2.28 0.285,2.85 -0.285,4.846c-9.12,6.84 -19.951,5.415 -31.067,5.415c-13.3,1.14 -26.696,2.09 -40.187,2.85c2.281,-6.27 5.416,-12.256 8.551,-18.241c7.98,-2.28 15.676,-4.275 23.941,-5.415Z" style="fill:#799c2b;fill-rule:nonzero;"/></g></svg>