<?xml version="1.0" encoding="UTF-8" standalone="no"?><!DOCTYPE svg PUBLIC "-//W3C//DTD SVG 1.1//EN" "http://www.w3.org/Graphics/SVG/1.1/DTD/svg11.dtd"><svg width="100%" height="100%" viewBox="0 0 1024 1024" version="1.1" xmlns="http://www.w3.org/2000/svg" xmlns:xlink="http://www.w3.org/1999/xlink" xml:space="preserve" xmlns:serif="http://www.serif.com/" style="fill-rule:evenodd;clip-rule:evenodd;stroke-linejoin:round;stroke-miterlimit:2;"><g><path d="M213.524,789.27l-0.037,-475.933l0.016,-143.205l-0.139,-41.206c-0.041,-8.292 -0.549,-16.903 0.408,-25.15c0.973,-8.389 5.029,-16.476 10.994,-22.446c5.558,-5.561 14.232,-9.951 22.084,-11.023c12.134,-1.656 28.569,-0.444 41.15,-0.441l85.972,0.04l274.236,0.039l0.009,92.803c-0.004,16.571 0.195,61.717 3.847,77.236c2.053,8.726 6.267,14.337 12.615,20.614c6.472,6.401 31.656,7.008 41.611,6.943c15.476,-0.101 47.603,1.526 64.457,1.512c35.2,-0.029 70.444,0.439 105.641,-0.008c4.191,-0.053 15.523,-1.033 15.596,1.957c0.52,21.306 0.043,42.73 0.03,64.045l0.022,117.602l-0.058,338.88l-0.001,0.513c-0.146,12.426 -3.384,23.715 -12.638,32.482c-6.536,6.192 -14.958,9.731 -23.856,10.61c-8.517,0.841 -17.386,0.385 -25.948,0.372l-42.623,-0.014l-141.946,-0.002l-260.753,0.009c-43.861,0.002 -87.893,0.833 -131.74,-0.043c-10.246,-0.206 -20.917,-5.459 -27.929,-12.851c-8.976,-9.462 -11.295,-20.7 -11.02,-33.335Zm464.699,-719.321c5.941,0.827 12.238,2.145 17.213,5.66c9.613,6.795 19.253,17.348 28.079,25.54l56.816,52.57l65.82,61.006c10.497,9.706 24.011,20.54 33.132,31.239l-105.27,0.176c-18.135,-0.002 -36.402,0.524 -54.52,0.04c-11.743,-0.312 -22.155,-4.513 -30.279,-13.102c-4.705,-4.974 -8.771,-11.563 -10.185,-18.315c-2.616,-12.481 -1.084,-41.063 -1.056,-54.919c0.063,-29.93 -0.572,-59.981 0.25,-89.895Z" style="fill:#cdd8ee;fill-rule:nonzero;"/><path d="M99.524,903.27l-0.037,-475.933l0.016,-143.205l-0.139,-41.206c-0.041,-8.292 -0.549,-16.903 0.408,-25.15c0.973,-8.389 5.029,-16.476 10.994,-22.446c5.558,-5.561 14.232,-9.951 22.084,-11.023c12.134,-1.656 28.569,-0.444 41.15,-0.441l85.972,0.04l274.236,0.039l0.009,92.803c-0.004,16.571 0.195,61.717 3.847,77.236c2.053,8.726 6.267,14.337 12.615,20.614c6.472,6.401 31.656,7.008 41.611,6.943c15.476,-0.101 47.603,1.526 64.457,1.512c35.2,-0.029 70.444,0.439 105.641,-0.008c4.191,-0.053 15.523,-1.033 15.596,1.957c0.52,21.306 0.043,42.73 0.03,64.045l0.022,117.602l-0.058,338.88l-0.001,0.513c-0.146,12.426 -3.384,23.715 -12.638,32.482c-6.536,6.192 -14.958,9.731 -23.856,10.61c-8.517,0.841 -17.386,0.385 -25.948,0.372l-42.623,-0.014l-141.946,-0.002l-260.753,0.009c-43.861,0.002 -87.893,0.833 -131.74,-0.043c-10.246,-0.206 -20.917,-5.459 -27.929,-12.851c-8.976,-9.462 -11.295,-20.7 -11.02,-33.335Zm464.699,-719.321c5.941,0.827 12.238,2.145 17.213,5.66c9.613,6.795 19.253,17.348 28.079,25.54l56.816,52.57l65.82,61.006c10.497,9.706 24.011,20.54 33.132,31.239l-105.27,0.176c-18.135,-0.002 -36.402,0.524 -54.52,0.04c-11.743,-0.312 -22.155,-4.513 -30.279,-13.102c-4.705,-4.974 -8.771,-11.563 -10.185,-18.315c-2.616,-12.481 -1.084,-41.063 -1.056,-54.919c0.063,-29.93 -0.572,-59.981 0.25,-89.895Z" style="fill:#7989ae;fill-rule:nonzero;"/><path d="M396.305,380.525c146.166,-12.5 274.684,96.115 286.724,242.32c12.036,146.21 -96.983,274.382 -243.228,285.962c-145.593,11.524 -273.073,-96.904 -285.058,-242.461c-11.984,-145.558 96.04,-273.376 241.562,-285.821Z" style="fill:#fefefe;fill-rule:nonzero;"/><g><path d="M622.84,578.81c-0.226,1.32 -1.963,2.652 -2.927,3.564c-4.493,4.257 -9.338,8.189 -13.94,12.335l-24.947,22.859l-61.772,56.966c-6.378,5.891 -13.428,11.258 -19.27,17.687c-0.317,-20.552 -0.164,-41.128 -0.199,-61.685l-123.282,-0.018l0.004,-50.045l-0.008,-52.608l123.284,0.004c0.345,-20.592 0.053,-41.243 0.096,-61.839c5.476,5.776 11.626,10.756 17.511,16.096l24.608,22.561c13.048,11.731 25.638,24.033 38.649,35.801l24.89,22.815c5.758,5.186 11.749,10.093 17.303,15.507" style="fill:#cc3f59;fill-rule:nonzero;"/><path d="M461.65,658.706l0.017,102.737c-41.085,-0.569 -82.281,-0.031 -123.375,-0.037l-0.01,61.757c-6.101,-6.339 -13.013,-11.759 -19.406,-17.784c-20.004,-18.859 -40.376,-37.418 -60.67,-55.971c-5.216,-4.771 -10.657,-9.258 -15.792,-14.125c-8.791,-8.824 -18.452,-16.646 -27.482,-25.211c13.992,-13.424 28.82,-26.104 43.118,-39.21c12.537,-11.488 24.804,-23.336 37.439,-34.711l25.659,-23.499c5.714,-5.183 11.654,-10.032 17.023,-15.59c0.151,20.553 0.199,41.107 0.144,61.662l123.335,-0.018Z" style="fill:#5abe3f;fill-rule:nonzero;"/></g></g></svg>