<?xml version="1.0" encoding="UTF-8" standalone="no"?><!DOCTYPE svg PUBLIC "-//W3C//DTD SVG 1.1//EN" "http://www.w3.org/Graphics/SVG/1.1/DTD/svg11.dtd"><svg width="100%" height="100%" viewBox="0 0 1024 1024" version="1.1" xmlns="http://www.w3.org/2000/svg" xmlns:xlink="http://www.w3.org/1999/xlink" xml:space="preserve" xmlns:serif="http://www.serif.com/" style="fill-rule:evenodd;clip-rule:evenodd;stroke-linejoin:round;stroke-miterlimit:2;"><g><path d="M246.104,793.977l-0.037,-475.932l0.017,-143.206l-0.139,-41.205c-0.041,-8.292 -0.549,-16.903 0.408,-25.15c0.973,-8.389 5.028,-16.477 10.993,-22.447c5.559,-5.561 14.233,-9.95 22.085,-11.023c12.134,-1.656 28.569,-0.443 41.149,-0.441l85.972,0.04l292.237,0.04l0.009,92.802c-0.004,16.571 -1.806,40.717 1.846,56.237c2.053,8.725 7.267,17.336 13.615,23.614c6.473,6.4 15.656,12.008 24.612,13.943c15.127,3.268 47.602,1.526 64.456,1.512c35.2,-0.03 70.447,0.438 105.641,-0.008c4.192,-0.053 9.984,-0.885 13.95,0.424c1.853,2.355 1.574,9.542 1.647,12.533c0.519,21.306 0.042,42.729 0.03,64.044l0.021,117.603l-0.057,338.879l-0.002,0.514c-0.145,12.425 -3.384,23.715 -12.638,32.481c-6.536,6.193 -14.957,9.731 -23.855,10.611c-8.517,0.841 -17.387,0.384 -25.949,0.371l-42.623,-0.014l-141.946,-0.001l-260.753,0.009c-43.86,0.001 -87.893,0.833 -131.739,-0.044c-10.247,-0.206 -20.918,-5.458 -27.929,-12.85c-8.976,-9.462 -11.296,-20.7 -11.021,-33.336Zm452.685,-719.324c5.941,0.827 24.252,2.149 29.227,5.664c9.614,6.794 19.253,17.348 28.079,25.54l56.817,52.569l65.82,61.006c10.497,9.707 35.064,33.046 44.186,43.745l-119.591,-0.416c-18.134,-0.003 -42.489,-0.351 -60.607,-0.835c-11.744,-0.312 -20.336,-6.031 -28.461,-14.62c-4.704,-4.974 -12.201,-16.862 -13.615,-23.614c-2.615,-12.481 -1.875,-42.381 -1.846,-56.237c0.063,-29.931 -0.831,-62.888 -0.009,-92.802Z" style="fill:#fff;fill-rule:nonzero;stroke:#f4a741;stroke-width:65px;stroke-dasharray:65,65;"/><path d="M99.524,903.27l-0.037,-475.933l0.016,-143.205l-0.139,-41.206c-0.041,-8.292 -0.549,-16.903 0.408,-25.15c0.973,-8.389 5.029,-16.476 10.994,-22.446c5.558,-5.561 14.232,-9.951 22.084,-11.023c12.134,-1.656 28.569,-0.444 41.15,-0.441l85.972,0.04l274.236,0.039l0.009,92.803c-0.004,16.571 0.195,61.717 3.847,77.236c2.053,8.726 6.267,14.337 12.615,20.614c6.472,6.401 31.656,7.008 41.611,6.943c15.476,-0.101 47.603,1.526 64.457,1.512c35.2,-0.029 70.444,0.439 105.641,-0.008c4.191,-0.053 15.523,-1.033 15.596,1.957c0.52,21.306 0.043,42.73 0.03,64.045l0.022,117.602l-0.058,338.88l-0.001,0.513c-0.146,12.426 -3.384,23.715 -12.638,32.482c-6.536,6.192 -14.958,9.731 -23.856,10.61c-8.517,0.841 -17.386,0.385 -25.948,0.372l-42.623,-0.014l-141.946,-0.002l-260.753,0.009c-43.861,0.002 -87.893,0.833 -131.74,-0.043c-10.246,-0.206 -20.917,-5.459 -27.929,-12.851c-8.976,-9.462 -11.295,-20.7 -11.02,-33.335Zm464.699,-719.321c5.941,0.827 12.238,2.145 17.213,5.66c9.613,6.795 19.253,17.348 28.079,25.54l56.816,52.57l65.82,61.006c10.497,9.706 24.011,20.54 33.132,31.239l-105.27,0.176c-18.135,-0.002 -36.402,0.524 -54.52,0.04c-11.743,-0.312 -22.155,-4.513 -30.279,-13.102c-4.705,-4.974 -8.771,-11.563 -10.185,-18.315c-2.616,-12.481 -1.084,-41.063 -1.056,-54.919c0.063,-29.93 -0.572,-59.981 0.25,-89.895Z" style="fill:#f4a741;fill-rule:nonzero;"/><path d="M396.305,380.525c146.166,-12.5 274.684,96.115 286.724,242.32c12.036,146.21 -96.983,274.382 -243.228,285.962c-145.593,11.524 -273.073,-96.904 -285.058,-242.461c-11.984,-145.558 96.04,-273.376 241.562,-285.821Z" style="fill:#fefefe;fill-rule:nonzero;"/><path d="M506.761,550.592c-23.903,-22.447 -55.008,-34.705 -88.028,-34.705c-59.375,0.076 -110.552,40.758 -124.726,97.221c-0.996,4.138 -4.673,7.049 -8.963,7.049l-43.823,-0c-5.746,-0 -10.113,-5.21 -9.04,-10.879c16.548,-88.105 93.851,-154.682 186.705,-154.682c50.871,0 97.146,19.996 131.238,52.633l27.351,-27.35c11.569,-11.569 31.411,-3.371 31.411,12.947l0,102.738c0,10.19 -8.197,18.387 -18.387,18.387l-102.738,0c-16.395,0 -24.592,-19.843 -13.024,-31.411l32.024,-31.948Zm-259.488,124.649l102.738,0c16.396,0 24.593,19.843 13.025,31.412l-32.025,32.024c23.98,22.448 55.008,34.706 88.029,34.706c59.298,-0.077 110.552,-40.682 124.725,-97.146c0.996,-4.137 4.674,-7.048 8.964,-7.048l43.899,0c5.746,0 10.113,5.21 9.041,10.879c-16.625,87.952 -93.928,154.528 -186.783,154.528c-50.871,0 -97.145,-19.996 -131.238,-52.633l-27.35,27.351c-11.569,11.569 -31.412,3.371 -31.412,-12.948l0,-102.737c0,-10.19 8.198,-18.388 18.387,-18.388Z" style="fill:#26a626;fill-rule:nonzero;"/></g></svg>