<?xml version="1.0" encoding="UTF-8" standalone="no"?><!DOCTYPE svg PUBLIC "-//W3C//DTD SVG 1.1//EN" "http://www.w3.org/Graphics/SVG/1.1/DTD/svg11.dtd"><svg width="100%" height="100%" viewBox="0 0 1024 1024" version="1.1" xmlns="http://www.w3.org/2000/svg" xml:space="preserve" style="fill-rule:evenodd;clip-rule:evenodd;stroke-linejoin:round;stroke-miterlimit:2;">
  <g>
    <!-- Folha, preenchida: acompanha o peso visual dos icones vizinhos da barra. -->
    <path d="M176,104C176,81.9 193.9,64 216,64L608,64L848,304L848,920C848,942.1 830.1,960 808,960L216,960C193.9,960 176,942.1 176,920L176,104Z" style="fill:#e46e64;"/>
    <!-- Dobra do canto, em tom mais claro. -->
    <path d="M608,64L848,304L648,304C625.9,304 608,286.1 608,264L608,64Z" style="fill:#f0a59e;"/>
    <!-- Tarjas: o que a ferramenta faz com o conteudo sensivel. -->
    <rect x="288" y="446" width="336" height="66" rx="33" style="fill:#fff;"/>
    <rect x="288" y="578" width="240" height="66" rx="33" style="fill:#fff;"/>
    <rect x="288" y="710" width="296" height="66" rx="33" style="fill:#fff;"/>
  </g>
</svg>
