<?xml version="1.0" encoding="UTF-8" standalone="no"?><!DOCTYPE svg PUBLIC "-//W3C//DTD SVG 1.1//EN" "http://www.w3.org/Graphics/SVG/1.1/DTD/svg11.dtd"><svg width="100%" height="100%" viewBox="0 0 1024 1024" version="1.1" xmlns="http://www.w3.org/2000/svg" xmlns:xlink="http://www.w3.org/1999/xlink" xml:space="preserve" xmlns:serif="http://www.serif.com/" style="fill-rule:evenodd;clip-rule:evenodd;stroke-linejoin:round;stroke-miterlimit:2;"><g><g><path d="M66.526,818.132c-0.858,-9.026 -0.492,-18.354 -0.499,-27.424l-0.009,-43.953l0.001,-140.788l-0.007,-301.276l-0.006,-88.778l-0.012,-33.352c-0.009,-14.518 -1.151,-29.83 3.362,-43.828c5.111,-15.853 16.414,-30.851 31.412,-38.48c7.844,-3.99 15.046,-6.377 23.732,-7.696c10.49,-1.593 21.579,-0.906 32.184,-0.907l49.892,0.016l76.773,-0.01c20.932,-0.003 43.484,-1.747 63.972,2.977c27.063,6.239 46.19,21.539 67.887,37.795l59.362,44.088c12.92,9.634 26.063,20.86 40.265,28.484c11.712,6.288 23.693,10.659 36.822,12.979c14.419,2.546 28.927,2.199 43.509,2.158l39.393,-0.014l145.019,0.008c19.048,-0.014 52.206,-2.064 69.436,3.7c17.555,6.002 31.932,18.853 39.862,35.625c2.69,5.553 5.049,12.04 5.968,18.161c1.184,7.886 2.095,68.108 0.381,73.008l35.749,-0.17c25.777,-0.059 43.926,-0.026 63.528,19.279c12.034,11.851 18.463,28.489 18.567,45.241c0.099,15.697 -5.538,31.025 -9.6,46.016l-14.109,51.62l-45.063,165.711l-30.189,111.037l-9.839,36.134c-2.399,8.884 -4.588,17.952 -7.634,26.642c-3.446,9.837 -8.176,17.921 -15.549,25.333c-18.551,18.646 -37.799,19.8 -62.583,19.743l-481.674,-0.069l-143.271,0.004l-42.59,0.039c-9.069,0.01 -18.554,0.448 -27.572,-0.584c-13.276,-1.521 -28.217,-8.377 -37.66,-17.876c-13.277,-13.354 -19.848,-29.747 -19.694,-48.524c0.032,-4.002 0.106,-8.087 0.484,-12.069Z" style="fill:#fecd1a;fill-rule:nonzero;"/><path d="M66.526,818.132c-0.858,-9.026 -0.492,-18.354 -0.499,-27.424l-0.009,-43.953l0.001,-140.788l-0.007,-301.276l-0.006,-88.778l-0.012,-33.352c-0.009,-14.518 -1.151,-29.83 3.362,-43.828c5.111,-15.853 16.414,-30.851 31.412,-38.48c7.844,-3.99 15.046,-6.377 23.732,-7.696c10.49,-1.593 21.579,-0.906 32.184,-0.907l49.892,0.016l76.773,-0.01c20.932,-0.003 43.484,-1.747 63.972,2.977c27.063,6.239 46.19,21.539 67.887,37.795l59.362,44.088c12.92,9.634 26.063,20.86 40.265,28.484c11.712,6.288 23.693,10.659 36.822,12.979c14.419,2.546 28.927,2.199 43.509,2.158l39.393,-0.014l145.019,0.008c19.048,-0.014 52.206,-2.064 69.436,3.7c17.555,6.002 31.932,18.853 39.862,35.625c2.69,5.553 5.049,12.04 5.968,18.161c1.184,7.886 2.095,68.108 0.381,73.008c-54.669,0.759 -109.422,0.132 -164.099,0.134l-308.998,0.002l-124.898,-0.004l-36.099,-0.028c-9.44,-0.004 -19.068,-0.314 -28.433,1.047c-12.459,1.813 -26.116,9.551 -34.79,18.564c-6.711,6.972 -11.935,15.854 -15.044,25.007c-4.139,12.182 -7.057,24.979 -10.437,37.406l-18.737,68.86l-58.957,216.374c-6.897,25.303 -13.522,50.708 -20.706,75.931c-1.315,4.617 -2.593,9.28 -4.244,13.793c-0.808,2.207 -2.32,4.75 -2.877,6.963c-0.278,1.105 -0.318,2.324 -0.38,3.458Z" style="fill:#fe9b2f;fill-rule:nonzero;"/></g><path d="M726.071,459.403c160.625,-13.738 301.857,105.622 315.088,266.291c13.227,160.673 -106.577,301.524 -267.289,314.249c-159.995,12.665 -300.087,-106.49 -313.257,-266.446c-13.169,-159.956 105.541,-300.419 265.458,-314.094Z" style="fill:#fefefe;fill-rule:nonzero;"/><g><path d="M742.424,522.347c125.535,-4.673 231.091,93.281 235.766,218.787c4.674,125.505 -93.301,231.037 -218.836,235.712c-125.538,4.676 -231.096,-93.279 -235.771,-218.787c-4.675,-125.507 93.304,-231.04 218.841,-235.712Z" style="fill:#4aa586;fill-rule:nonzero;"/><path d="M728.118,635.824l34.183,-0.007l0.004,118.486c9.385,5.17 18.509,10.973 27.699,16.488l50.333,30.208c8.022,4.813 15.985,9.889 24.199,14.358c-3.002,6.322 -7.357,12.367 -11.047,18.326c-2.324,3.749 -4.805,7.473 -6.777,11.42c-4.072,-2.04 -7.924,-4.629 -11.797,-7.022l-18.303,-11.279l-57.754,-35.558c-10.17,-6.259 -20.289,-13.036 -30.758,-18.754l0.018,-136.666Z" style="fill:#fefefe;fill-rule:nonzero;"/></g></g></svg>